# AST/ASF file generated using VICON BodyLanguage
# -----------------------------------------------
:version 1.10
:name VICON
:units
  mass 1.0
  length 0.45
  angle deg
:documentation
   .ast/.asf automatically generated from VICON data using
   VICON BodyBuilder and BodyLanguage model FoxedUp or BRILLIANT.MOD
:root
   order TX TY TZ RX RY RZ
   axis XYZ
   position 0 0 0  
   orientation 0 0 0 
:bonedata
  begin
     id 1 
     name lhipjoint
     direction 0.646657 -0.683706 0.338203 
     length 2.4948 
     axis 0 0 0  XYZ
  end
  begin
     id 2 
     name lfemur
     direction 0.34202 -0.939693 0  
     length 6.79491  
     axis 0 0 20  XYZ
    dof rx ry rz
    limits (-160.0 20.0)
           (-70.0 70.0)
           (-60.0 70.0)
  end
  begin
     id 3 
     name ltibia
     direction 0.34202 -0.939693 0   
     length 7.56807   
     axis 0 0 20   XYZ
    dof rx
    limits (-10.0 170.0)
  end
  begin
     id 4 
     name lfoot
     direction 0.0679796 -0.186772 0.980048   
     length 2.53018   
     axis -90 7.62852e-016 20   XYZ
    dof rx rz
    limits (-45.0 90.0)
           (-70.0 20.0)
  end
  begin
     id 5 
     name ltoes
     direction 1.53625e-011 -4.21881e-011 1   
     length 1.26912   
     axis -90 7.62852e-016 20   XYZ
    dof rx
    limits (-90.0 20.0)
  end
  begin
     id 6 
     name rhipjoint
     direction -0.618868 -0.704065 0.348274   
     length 2.42265  
     axis 0 0 0  XYZ 
  end
  begin
     id 7 
     name rfemur
     direction -0.34202 -0.939693 0   
     length 6.73814   
     axis 0 0 -20   XYZ
    dof rx ry rz
    limits (-160.0 20.0)
           (-70.0 70.0)
           (-70.0 60.0)
  end
  begin
     id 8 
     name rtibia
     direction -0.34202 -0.939693 0   
     length 7.66799   
     axis 0 0 -20   XYZ
    dof rx
    limits (-10.0 170.0)
 end
 begin
     id 9 
     name rfoot
     direction -0.0727352 -0.199838 0.977125   
     length 2.57224  
     axis -90 -7.62852e-016 -20   XYZ
    dof rx rz
    limits (-45.0 90.0)
           (-20.0 70.0)
  end
  begin
     id 10 
     name rtoes
     direction -1.53501e-011 -4.21858e-011 1   
     length 1.28858   
     axis -90 -7.62852e-016 -20   XYZ
    dof rx
    limits (-90.0 20.0)
  end
  begin
     id 11 
     name lowerback
     direction -0.0172471 0.995767 -0.0902851   
     length 2.20206   
     axis 0 0 0   XYZ
    dof rx ry rz
    limits (-20.0 45.0)
           (-30.0 30.0)
           (-30.0 30.0)
  end
  begin
     id 12 
     name upperback
     direction -0.000110737 0.999714 0.0239043   
     length 2.19523   
     axis 0 0 0   XYZ
    dof rx ry rz
    limits (-20.0 45.0)
           (-30.0 30.0)
           (-30.0 30.0)
  end
  begin
     id 13 
     name thorax
     direction 0.00704869 0.997783 0.0661741   
     length 2.21977   
     axis 0 0 0   XYZ
    dof rx ry rz
    limits (-20.0 45.0)
           (-30.0 30.0)
           (-30.0 30.0)
  end
  begin
     id 14 
     name lowerneck
     direction -0.00407501 0.995527 0.0943846   
     length 1.83142   
     axis 0 0 0   XYZ
    dof rx ry rz
    limits (-20.0 45.0)
           (-30.0 30.0)
           (-30.0 30.0)
  end
  begin
     id 15 
     name upperneck
     direction 0.0640586 0.986486 -0.150807   
     length 1.84616   
     axis 0 0 0   XYZ
    dof rx ry rz
    limits (-20.0 45.0)
           (-30.0 30.0)
           (-30.0 30.0)
  end
  begin
     id 16
     name head
     direction 0.0188017 0.99791 -0.0618239  
     length 1.85932  
     axis 0 0 0   XYZ
    dof rx ry rz
    limits (-20.0 45.0)
           (-30.0 30.0)
           (-30.0 30.0)
  end
  begin
     id 17 
     name lclavicle
     direction 0.976074 0.206905 0.066852  
     length 3.81043  
     axis 0 0 0   XYZ
    dof ry rz
    limits (-20.0 10.0)
           (0.0 20.0)
  end
  begin
     id 18 
     name lhumerus
     direction 1 -4.48971e-011 1.86916e-027   
     length 5.37587   
     axis 180 -30 -90   XYZ
    dof rx ry rz
    limits (-60.0 90.0)
           (-90.0 90.0)
           (-90.0 90.0)
  end
  begin
     id 19
     name lradius
     direction 1 -4.48968e-011 1.69187e-027   
     length 3.35977   
     axis 180 -30 -90   XYZ
    dof rx
    limits (-10.0 170.0)
  end
  begin
     id 20
     name lwrist
     direction 1 -4.48968e-011 5.8978e-027   
     length 1.67988   
     axis -3.27506e-015 90 90   XYZ
    dof ry
    limits (-180.0 0.0)
 end
  begin
     id 21 
     name lhand
     direction 1 -4.49028e-011 1.18071e-026   
     length 0.561859   
     axis -7.52654e-015 90 90   XYZ
    dof rx rz
    limits (-90.0 90.0)
           (-45.0 45.0)
  end
  begin
     id 22 
     name lfingers
     direction 1 -4.48927e-011 2.35758e-026   
     length 0.452985   
     axis -1.50534e-014 90 90   XYZ
    dof rx
    limits (0.0 90.0)
  end
  begin
     id 23
     name lthumb
     direction 0.707107 -6.34898e-011 0.707107   
     length 0.650399   
     axis -90 45 5.69224e-014   XYZ
    dof rx rz
    limits (-45.0 45.0)
           (-45.0 45.0)
  end
  begin
     id 24 
     name rclavicle
     direction -0.988403 0.151789 0.00439714   
     length 3.6942  
     axis 0 0 0   XYZ 
    dof ry rz
    limits (-10.0 20.0)
           (-20.0 0.0)
  end
  begin
     id 25 
     name rhumerus
     direction -1 -4.48978e-011 1.62495e-027  
     length 5.22819   
     axis 180 30 90   XYZ
    dof rx ry rz
    limits (-90.0 60.0)
           (-90.0 90.0)
           (-90.0 90.0)
  end
  begin
     id 26 
     name rradius
     direction -1 -4.48961e-011 3.47796e-027   
     length 3.40764   
     axis 180 30 90   XYZ
    dof rx
    limits (-10.0 170.0)
  end
  begin
     id 27 
     name rwrist
     direction -1 -4.48949e-011 5.89602e-027   
     length 1.70382   
     axis -3.27506e-015 -90 -90   XYZ
    dof ry
    limits (-180.0 0.0)
  end
  begin
     id 28
     name rhand
     direction -1 -4.48977e-011 1.17973e-026   
     length 0.583255   
     axis -7.52654e-015 -90 -90   XYZ
    dof rx rz
    limits (-90.0 90.0)
           (-45.0 45.0)
  end
  begin
     id 29
     name rfingers
     direction -1 -4.49099e-011 2.36408e-026   
     length 0.470235   
     axis -1.50534e-014 -90 -90   XYZ
    dof rx
    limits (0.0 90.0)
  end
  begin
     id 30
     name rthumb
     direction -0.707107 -6.35011e-011 0.707107   
     length 0.675167   
     axis -90 -45 -5.69224e-014   XYZ
    dof rx rz
    limits (-45.0 45.0)
           (-45.0 45.0)
  end
:hierarchy
  begin
    root lhipjoint rhipjoint lowerback
    lhipjoint lfemur
    lfemur ltibia
    ltibia lfoot
    lfoot ltoes
    rhipjoint rfemur
    rfemur rtibia
    rtibia rfoot
    rfoot rtoes
    lowerback upperback
    upperback thorax
    thorax lowerneck lclavicle rclavicle
    lowerneck upperneck
    upperneck head
    lclavicle lhumerus
    lhumerus lradius
    lradius lwrist
    lwrist lhand lthumb
    lhand lfingers
    rclavicle rhumerus
    rhumerus rradius
    rradius rwrist
    rwrist rhand rthumb
    rhand rfingers
  end

#!OML:ASF G:\JayActor3\Patient Classification 1\Patient 1\Session 2\male.ASF
:FULLY-SPECIFIED
:DEGREES
1
root 46.1953 16.4952 -7.2569 42.9238 -87.2199 -40.8624
lowerback -4.44221 -0.668157 -0.662595
upperback 3.88112 -0.949168 1.16077
thorax 6.56549 -0.544073 1.48519
lowerneck -1.48116 -10.537 -9.523
upperneck -2.86516 -14.0339 14.7256
head 1.152 -7.04265 5.53798
rclavicle 2.92586e-015 3.2551e-015
rhumerus -25.8578 -8.17142 -85.695
rradius 24.3024
rwrist 1.34816
rhand -22.0079 6.72411
rfingers 7.12502
rthumb 4.40112 -23.2102
lclavicle 2.92586e-015 3.2551e-015
lhumerus -25.9812 4.90288 89.0909
lradius 25.9208
lwrist 9.1615
lhand -20.1062 17.8803
lfingers 7.12502
lthumb 6.23731 47.7685
rfemur -14.3714 -1.79496 23.882
rtibia 39.0188
rfoot -29.1247 -9.45596
rtoes 19.8538
lfemur -10.2447 3.06653 -20.1924
ltibia 31.1071
lfoot -21.8461 13.5543
ltoes -4.7646
2
root 46.1959 16.4953 -7.2573 42.8811 -87.2248 -40.8065
lowerback -4.44655 -0.676885 -0.674406
upperback 3.8576 -0.959909 1.17022
thorax 6.5438 -0.549743 1.50064
lowerneck -1.47194 -10.5238 -9.58649
upperneck -2.81451 -14.0216 14.7706
head 1.17192 -7.03525 5.56042
rclavicle 1.20327e-014 -2.18663e-015
rhumerus -25.8939 -8.08805 -85.7039
rradius 24.3139
rwrist 1.33581
rhand -22.0141 6.71097
rfingers 7.12502
rthumb 4.39513 -23.2234
lclavicle 1.20327e-014 -2.18663e-015
lhumerus -26.017 4.93547 89.0895
lradius 25.9108
lwrist 9.14448
lhand -20.101 17.9101
lfingers 7.12502
lthumb 6.24234 47.7981
rfemur -14.3944 -1.80499 23.8772
rtibia 39.0261
rfoot -29.1071 -9.44811
rtoes 19.8543
lfemur -10.26 3.09091 -20.1932
ltibia 31.1044
lfoot -21.8798 13.4814
ltoes -4.51272
3
root 46.1966 16.4948 -7.25818 42.6549 -87.2235 -40.5955
lowerback -4.434 -0.662306 -0.680499
upperback 3.86542 -0.93954 1.16054
thorax 6.54409 -0.539822 1.49612
lowerneck -1.4905 -10.5405 -9.58727
upperneck -2.80375 -14.0462 14.824
head 1.18544 -7.04713 5.57311
rclavicle 1.00262e-014 -4.62174e-015
rhumerus -25.8997 -8.11415 -85.708
rradius 24.3222
rwrist 1.32296
rhand -21.9908 6.68715
rfingers 7.12502
rthumb 4.41765 -23.2468
lclavicle 1.00262e-014 -4.62174e-015
lhumerus -25.9988 4.88543 89.0892
lradius 25.9005
lwrist 9.13581
lhand -20.1059 17.8283
lfingers 7.12502
lthumb 6.23757 47.7165
rfemur -14.3823 -1.80444 23.8732
rtibia 39.0319
rfoot -29.1092 -9.45818
rtoes 19.8219
lfemur -10.2448 3.0959 -20.1965
ltibia 31.1017
lfoot -21.8307 13.5099
ltoes -4.74322
4
root 46.1968 16.4947 -7.25855 42.7132 -87.2254 -40.6637
lowerback -4.42112 -0.669405 -0.677211
upperback 3.84551 -0.949105 1.16509
thorax 6.51589 -0.544128 1.49824
lowerneck -1.52508 -10.5347 -9.61092
upperneck -2.68497 -14.0462 14.8109
head 1.22629 -7.0425 5.56704
rclavicle -1.20886e-014 -5.19325e-015
rhumerus -25.9252 -8.10373 -85.7048
rradius 24.2909
rwrist 1.37693
rhand -22.0087 6.71262
rfingers 7.12502
rthumb 4.40033 -23.2217
lclavicle -1.20886e-014 -5.19325e-015
lhumerus -26.0381 4.93352 89.0777
lradius 25.8904
lwrist 9.12151
lhand -20.1187 17.8452
lfingers 7.12502
lthumb 6.22519 47.7337
rfemur -14.374 -1.79935 23.8765
rtibia 39.0356
rfoot -29.119 -9.4628
rtoes 19.8384
lfemur -10.2344 3.09428 -20.1931
ltibia 31.1
lfoot -21.8455 13.502
ltoes -4.66691
5
root 46.1972 16.4946 -7.25906 42.6279 -87.2266 -40.5874
lowerback -4.41131 -0.667972 -0.679009
upperback 3.83408 -0.946685 1.16382
thorax 6.49803 -0.542745 1.4983
lowerneck -1.56551 -10.5379 -9.63781
upperneck -2.58045 -14.0581 14.8332
head 1.26849 -7.04429 5.57114
rclavicle 5.82066e-015 6.31141e-015
rhumerus -25.9452 -8.10417 -85.7034
rradius 24.274
rwrist 1.40035
rhand -22.0112 6.73157
rfingers 7.12502
rthumb 4.39795 -23.2028
lclavicle 5.82066e-015 6.31141e-015
lhumerus -26.0577 4.94239 89.0708
lradius 25.8762
lwrist 9.10742
lhand -20.1261 17.8446
lfingers 7.12502
lthumb 6.21812 47.7333
rfemur -14.3674 -1.80244 23.874
rtibia 39.0401
rfoot -29.1223 -9.4649
rtoes 19.8308
lfemur -10.2248 3.10025 -20.194
ltibia 31.0968
lfoot -21.8367 13.4999
ltoes -4.68179
6
root 46.1974 16.4946 -7.25955 42.4958 -87.2286 -40.4645
lowerback -4.40199 -0.666304 -0.683012
upperback 3.82115 -0.943647 1.16114
thorax 6.47886 -0.541087 1.49819
lowerneck -1.61979 -10.5419 -9.66964
upperneck -2.44497 -14.0732 14.8589
head 1.32301 -7.04642 5.575
rclavicle 5.39203e-015 -2.36057e-015
rhumerus -25.9667 -8.11471 -85.6991
rradius 24.2523
rwrist 1.42949
rhand -22.0134 6.75795
rfingers 7.12502
rthumb 4.39587 -23.1764
lclavicle 5.39203e-015 -2.36057e-015
lhumerus -26.0795 4.95052 89.0625
lradius 25.86
lwrist 9.09374
lhand -20.1334 17.8532
lfingers 7.12502
lthumb 6.21105 47.7422
rfemur -14.3585 -1.80622 23.8691
rtibia 39.0418
rfoot -29.1255 -9.46959
rtoes 19.8176
lfemur -10.2154 3.10202 -20.198
ltibia 31.0953
lfoot -21.8257 13.506
ltoes -4.72003
7
root 46.1976 16.4946 -7.26006 42.3996 -87.2299 -40.3762
lowerback -4.39289 -0.665512 -0.686728
upperback 3.80377 -0.941759 1.15962
thorax 6.45518 -0.53993 1.49902
lowerneck -1.68742 -10.546 -9.70929
upperneck -2.26628 -14.0916 14.8832
head 1.39316 -7.0485 5.57735
rclavicle -5.28022e-017 -7.77745e-015
rhumerus -25.9926 -8.12812 -85.6919
rradius 24.2271
rwrist 1.46147
rhand -22.0154 6.78279
rfingers 7.12502
rthumb 4.39391 -23.1516
lclavicle -5.28022e-017 -7.77745e-015
lhumerus -26.1079 4.96377 89.0524
lradius 25.8416
lwrist 9.08066
lhand -20.1343 17.8672
lfingers 7.12502
lthumb 6.21017 47.7561
rfemur -14.3508 -1.80818 23.8661
rtibia 39.0437
rfoot -29.1294 -9.47369
rtoes 19.8123
lfemur -10.2069 3.10204 -20.2007
ltibia 31.093
lfoot -21.8162 13.5145
ltoes -4.75777
8
root 46.1975 16.4947 -7.26063 42.3149 -87.2289 -40.2975
lowerback -4.38775 -0.665654 -0.690067
upperback 3.78536 -0.941133 1.15855
thorax 6.43272 -0.539375 1.49996
lowerneck -1.77563 -10.5506 -9.75697
upperneck -2.04337 -14.1137 14.9111
head 1.4809 -7.05051 5.57919
rclavicle 7.01648e-015 -1.09083e-014
rhumerus -26.0185 -8.14376 -85.6839
rradius 24.2013
rwrist 1.49114
rhand -22.016 6.80242
rfingers 7.12502
rthumb 4.3933 -23.132
lclavicle 7.01648e-015 -1.09083e-014
lhumerus -26.1361 4.97854 89.0404
lradius 25.8211
lwrist 9.06847
lhand -20.1323 17.8802
lfingers 7.12502
lthumb 6.21212 47.7692
rfemur -14.344 -1.80619 23.8661
rtibia 39.0441
rfoot -29.1349 -9.48001
rtoes 19.8128
lfemur -10.201 3.09907 -20.2013
ltibia 31.0911
lfoot -21.8053 13.5258
ltoes -4.80504
9
root 46.1973 16.4949 -7.26122 42.3151 -87.2261 -40.3011
lowerback -4.38564 -0.667241 -0.690763
upperback 3.7638 -0.942647 1.15906
thorax 6.40874 -0.539744 1.50082
lowerneck -1.88285 -10.5554 -9.8053
upperneck -1.77187 -14.1394 14.9297
head 1.58569 -7.05231 5.5757
rclavicle -6.95746e-016 1.36416e-014
rhumerus -26.0365 -8.17575 -85.6739
rradius 24.161
rwrist 1.53884
rhand -22.0178 6.81851
rfingers 7.12502
rthumb 4.39159 -23.116
lclavicle -6.95746e-016 1.36416e-014
lhumerus -26.1683 4.99886 89.0254
lradius 25.8005
lwrist 9.05748
lhand -20.1263 17.8867
lfingers 7.12502
lthumb 6.21785 47.7755
rfemur -14.3387 -1.80201 23.8712
rtibia 39.0424
rfoot -29.1368 -9.49006
rtoes 19.8068
lfemur -10.1979 3.09412 -20.1978
ltibia 31.0906
lfoot -21.7976 13.539
ltoes -4.84891
10
root 46.1969 16.4951 -7.26187 42.3516 -87.2223 -40.3371
lowerback -4.39063 -0.669949 -0.689316
upperback 3.74059 -0.945702 1.15895
thorax 6.3871 -0.540735 1.49963
lowerneck -2.00602 -10.5621 -9.84716
upperneck -1.45921 -14.1702 14.9342
head 1.70419 -7.0551 5.56471
rclavicle -3.47563e-015 2.23633e-015
rhumerus -26.0459 -8.22186 -85.6642
rradius 24.1104
rwrist 1.59495
rhand -22.0168 6.83018
rfingers 7.12502
rthumb 4.39256 -23.1043
lclavicle -3.47563e-015 2.23633e-015
lhumerus -26.1996 5.02388 89.0063
lradius 25.7773
lwrist 9.046
lhand -20.1193 17.8875
lfingers 7.12502
lthumb 6.22463 47.776
rfemur -14.3364 -1.79381 23.8792
rtibia 39.0391
rfoot -29.141 -9.49908
rtoes 19.8142
lfemur -10.1986 3.08773 -20.1923
ltibia 31.091
lfoot -21.7939 13.5495
ltoes -4.87278
11
root 46.1963 16.4954 -7.26249 42.4308 -87.2177 -40.4134
lowerback -4.40291 -0.67302 -0.684487
upperback 3.71778 -0.949418 1.15799
thorax 6.37005 -0.541894 1.4955
lowerneck -2.15595 -10.5695 -9.88064
upperneck -1.09899 -14.2048 14.9221
head 1.83954 -7.05757 5.54451
rclavicle 2.60905e-016 -2.31087e-015
rhumerus -26.0469 -8.28005 -85.6546
rradius 24.0507
rwrist 1.66198
rhand -22.0193 6.84271
rfingers 7.12502
rthumb 4.39013 -23.0918
lclavicle 2.60905e-016 -2.31087e-015
lhumerus -26.2283 5.0512 88.9841
lradius 25.7527
lwrist 9.03317
lhand -20.114 17.8886
lfingers 7.12502
lthumb 6.22979 47.777
rfemur -14.335 -1.78722 23.8891
rtibia 39.0342
rfoot -29.1438 -9.50797
rtoes 19.8151
lfemur -10.2013 3.08254 -20.1849
ltibia 31.0926
lfoot -21.7921 13.5598
ltoes -4.89113
12
root 46.1955 16.4956 -7.26301 42.4803 -87.2159 -40.4572
lowerback -4.42123 -0.676451 -0.680328
upperback 3.69454 -0.953373 1.15463
thorax 6.35599 -0.543133 1.48919
lowerneck -2.33052 -10.5763 -9.90334
upperneck -0.698284 -14.2405 14.8914
head 1.98876 -7.05881 5.51482
rclavicle -1.21259e-014 3.45388e-015
rhumerus -26.0448 -8.34233 -85.6458
rradius 23.9892
rwrist 1.73121
rhand -22.0227 6.85079
rfingers 7.12502
rthumb 4.3868 -23.0838
lclavicle -1.21259e-014 3.45388e-015
lhumerus -26.2536 5.08511 88.9581
lradius 25.7242
lwrist 9.01609
lhand -20.11 17.8819
lfingers 7.12502
lthumb 6.23358 47.7702
rfemur -14.3358 -1.78392 23.8946
rtibia 39.0292
rfoot -29.1453 -9.51267
rtoes 19.8143
lfemur -10.2054 3.07648 -20.1814
ltibia 31.0942
lfoot -21.7943 13.5686
ltoes -4.89666
13
root 46.1946 16.4957 -7.26343 42.5992 -87.2144 -40.5708
lowerback -4.443 -0.678872 -0.672309
upperback 3.6722 -0.956256 1.15094
thorax 6.34476 -0.543686 1.48042
lowerneck -2.51922 -10.5814 -9.91725
upperneck -0.268977 -14.2757 14.8472
head 2.14702 -7.05867 5.47853
rclavicle 7.95139e-015 -2.16178e-015
rhumerus -26.0482 -8.39149 -85.6379
rradius 23.9378
rwrist 1.78433
rhand -22.0254 6.85358
rfingers 7.12502
rthumb 4.38422 -23.081
lclavicle 7.95139e-015 -2.16178e-015
lhumerus -26.2758 5.12148 88.9308
lradius 25.6952
lwrist 8.99612
lhand -20.1072 17.8816
lfingers 7.12502
lthumb 6.23631 47.7698
rfemur -14.3356 -1.78209 23.9018
rtibia 39.0238
rfoot -29.1479 -9.50926
rtoes 19.8254
lfemur -10.2085 3.0716 -20.1759
ltibia 31.0961
lfoot -21.7977 13.5795
ltoes -4.90624
14
root 46.1937 16.4958 -7.26376 42.6787 -87.2153 -40.6451
lowerback -4.46821 -0.680719 -0.666527
upperback 3.65142 -0.958154 1.146
thorax 6.33714 -0.543853 1.47167
lowerneck -2.71869 -10.583 -9.92776
upperneck 0.177406 -14.3075 14.799
head 2.31126 -7.0561 5.44007
rclavicle 3.98501e-015 4.94477e-015
rhumerus -26.0594 -8.42454 -85.631
rradius 23.9023
rwrist 1.8201
rhand -22.0288 6.84847
rfingers 7.12502
rthumb 4.38092 -23.0862
lclavicle 3.98501e-015 4.94477e-015
lhumerus -26.2929 5.16018 88.9033
lradius 25.6646
lwrist 8.97297
lhand -20.1044 17.8897
lfingers 7.12502
lthumb 6.23904 47.7778
rfemur -14.335 -1.78264 23.905
rtibia 39.0191
rfoot -29.1496 -9.50505
rtoes 19.8308
lfemur -10.2103 3.06444 -20.174
ltibia 31.0979
lfoot -21.8047 13.5899
ltoes -4.91075
15
root 46.1928 16.4958 -7.26412 42.7924 -87.2159 -40.7568
lowerback -4.49168 -0.680524 -0.659316
upperback 3.63064 -0.957429 1.14089
thorax 6.32842 -0.54266 1.46221
lowerneck -2.90961 -10.5812 -9.93751
upperneck 0.629571 -14.3365 14.753
head 2.47578 -7.05243 5.40301
rclavicle -5.31128e-016 -1.71452e-015
rhumerus -26.0825 -8.44202 -85.6247
rradius 23.8834
rwrist 1.83534
rhand -22.0292 6.83473
rfingers 7.12502
rthumb 4.38058 -23.1
lclavicle -5.31128e-016 -1.71452e-015
lhumerus -26.3094 5.19235 88.8768
lradius 25.6352
lwrist 8.9542
lhand -20.1005 17.8929
lfingers 7.12502
lthumb 6.24274 47.7809
rfemur -14.3304 -1.78337 23.9097
rtibia 39.014
rfoot -29.152 -9.49918
rtoes 19.8411
lfemur -10.209 3.06139 -20.1695
ltibia 31.1008
lfoot -21.8119 13.597
ltoes -4.91865
